# xmcd
#
# Track frame offsets:
#	150
#	28133
#	40720
#	55677
#	77962
#	98396
#	108320
#	129405
#
# Disc length: 1853 seconds
#
# Revision: 0
# Processed by: cddbd v1.4PL0 Copyright (c) Steve Scherf et al.
# Submitted via: dBpowerAMP V4.0
#
DISCID=58073b08
DTITLE=Cruelest aprils - Novella
DYEAR=1900
DGENRE=Country
TTITLE0=Serve and protect
TTITLE1=Pony express
TTITLE2=Clementine
TTITLE3=Cross hairs
TTITLE4=Murder ballad
TTITLE5=Le belle dame sans merci
TTITLE6=Mad props to J.C.
TTITLE7=Lullabye bye
EXTD=
EXTT0=
EXTT1=
EXTT2=
EXTT3=
EXTT4=
EXTT5=
EXTT6=
EXTT7=
PLAYORDER=
